<?xml version="1.0" encoding="UTF-8" standalone="no"?>
<!DOCTYPE svg PUBLIC "-//W3C//DTD SVG 1.1//EN"
 "http://www.w3.org/Graphics/SVG/1.1/DTD/svg11.dtd">
<!-- Generated by graphviz version 2.40.1 (20161225.0304)
 -->
<!-- Title: %3 Pages: 1 -->
<svg width="268pt" height="116pt"
 viewBox="0.00 0.00 267.95 116.00" xmlns="http://www.w3.org/2000/svg" xmlns:xlink="http://www.w3.org/1999/xlink">
<g id="graph0" class="graph" transform="scale(1 1) rotate(0) translate(4 112)">
<title>%3</title>
<polygon fill="#ffffff" stroke="transparent" points="-4,4 -4,-112 263.9452,-112 263.9452,4 -4,4"/>
<!-- hashsplitter&#45;workflow.cwl#whirlpool -->
<g id="node1" class="node">
<title>hashsplitter&#45;workflow.cwl#whirlpool</title>
<ellipse fill="none" stroke="#000000" cx="53.9452" cy="-90" rx="53.8905" ry="18"/>
<text text-anchor="middle" x="53.9452" y="-86.3" font-family="Times,serif" font-size="14.00" fill="#000000">whirlpool</text>
</g>
<!-- hashsplitter&#45;workflow.cwl#unify -->
<g id="node2" class="node">
<title>hashsplitter&#45;workflow.cwl#unify</title>
<ellipse fill="none" stroke="#000000" cx="156.9452" cy="-18" rx="34.394" ry="18"/>
<text text-anchor="middle" x="156.9452" y="-14.3" font-family="Times,serif" font-size="14.00" fill="#000000">unify</text>
</g>
<!-- hashsplitter&#45;workflow.cwl#whirlpool&#45;&gt;hashsplitter&#45;workflow.cwl#unify -->
<g id="edge3" class="edge">
<title>hashsplitter&#45;workflow.cwl#whirlpool&#45;&gt;hashsplitter&#45;workflow.cwl#unify</title>
<path fill="none" stroke="#000000" d="M77.3175,-73.6621C92.2414,-63.2299 111.711,-49.62 127.6625,-38.4695"/>
<polygon fill="#000000" stroke="#000000" points="129.9205,-41.1615 136.1113,-32.5635 125.91,-35.4242 129.9205,-41.1615"/>
</g>
<!-- hashsplitter&#45;workflow.cwl#md5 -->
<g id="node3" class="node">
<title>hashsplitter&#45;workflow.cwl#md5</title>
<ellipse fill="none" stroke="#000000" cx="156.9452" cy="-90" rx="31.3957" ry="18"/>
<text text-anchor="middle" x="156.9452" y="-86.3" font-family="Times,serif" font-size="14.00" fill="#000000">md5</text>
</g>
<!-- hashsplitter&#45;workflow.cwl#md5&#45;&gt;hashsplitter&#45;workflow.cwl#unify -->
<g id="edge2" class="edge">
<title>hashsplitter&#45;workflow.cwl#md5&#45;&gt;hashsplitter&#45;workflow.cwl#unify</title>
<path fill="none" stroke="#000000" d="M156.9452,-71.8314C156.9452,-64.131 156.9452,-54.9743 156.9452,-46.4166"/>
<polygon fill="#000000" stroke="#000000" points="160.4453,-46.4132 156.9452,-36.4133 153.4453,-46.4133 160.4453,-46.4132"/>
</g>
<!-- hashsplitter&#45;workflow.cwl#sha -->
<g id="node4" class="node">
<title>hashsplitter&#45;workflow.cwl#sha</title>
<ellipse fill="none" stroke="#000000" cx="232.9452" cy="-90" rx="27" ry="18"/>
<text text-anchor="middle" x="232.9452" y="-86.3" font-family="Times,serif" font-size="14.00" fill="#000000">sha</text>
</g>
<!-- hashsplitter&#45;workflow.cwl#sha&#45;&gt;hashsplitter&#45;workflow.cwl#unify -->
<g id="edge1" class="edge">
<title>hashsplitter&#45;workflow.cwl#sha&#45;&gt;hashsplitter&#45;workflow.cwl#unify</title>
<path fill="none" stroke="#000000" d="M217.198,-75.0816C206.7836,-65.2153 192.9261,-52.0872 181.1266,-40.9087"/>
<polygon fill="#000000" stroke="#000000" points="183.3933,-38.2348 173.7267,-33.8982 178.5791,-43.3165 183.3933,-38.2348"/>
</g>
</g>
</svg>
