<?xml version="1.0" encoding="UTF-8" standalone="no"?>
<!DOCTYPE svg PUBLIC "-//W3C//DTD SVG 1.1//EN"
 "http://www.w3.org/Graphics/SVG/1.1/DTD/svg11.dtd">
<!-- Generated by graphviz version 2.40.1 (20161225.0304)
 -->
<!-- Title: %3 Pages: 1 -->
<svg width="178pt" height="188pt"
 viewBox="0.00 0.00 178.28 188.00" xmlns="http://www.w3.org/2000/svg" xmlns:xlink="http://www.w3.org/1999/xlink">
<g id="graph0" class="graph" transform="scale(1 1) rotate(0) translate(4 184)">
<title>%3</title>
<polygon fill="#ffffff" stroke="transparent" points="-4,4 -4,-184 174.2849,-184 174.2849,4 -4,4"/>
<!-- gwas_workflow.cwl#run_gwas -->
<g id="node1" class="node">
<title>gwas_workflow.cwl#run_gwas</title>
<ellipse fill="none" stroke="#000000" cx="85.1424" cy="-90" rx="55.7903" ry="18"/>
<text text-anchor="middle" x="85.1424" y="-86.3" font-family="Times,serif" font-size="14.00" fill="#000000">run_gwas</text>
</g>
<!-- gwas_workflow.cwl#create_plot -->
<g id="node3" class="node">
<title>gwas_workflow.cwl#create_plot</title>
<ellipse fill="none" stroke="#000000" cx="85.1424" cy="-18" rx="63.8893" ry="18"/>
<text text-anchor="middle" x="85.1424" y="-14.3" font-family="Times,serif" font-size="14.00" fill="#000000">create_plot</text>
</g>
<!-- gwas_workflow.cwl#run_gwas&#45;&gt;gwas_workflow.cwl#create_plot -->
<g id="edge2" class="edge">
<title>gwas_workflow.cwl#run_gwas&#45;&gt;gwas_workflow.cwl#create_plot</title>
<path fill="none" stroke="#000000" d="M85.1424,-71.8314C85.1424,-64.131 85.1424,-54.9743 85.1424,-46.4166"/>
<polygon fill="#000000" stroke="#000000" points="88.6425,-46.4132 85.1424,-36.4133 81.6425,-46.4133 88.6425,-46.4132"/>
</g>
<!-- gwas_workflow.cwl#parse_metadata -->
<g id="node2" class="node">
<title>gwas_workflow.cwl#parse_metadata</title>
<ellipse fill="none" stroke="#000000" cx="85.1424" cy="-162" rx="85.2851" ry="18"/>
<text text-anchor="middle" x="85.1424" y="-158.3" font-family="Times,serif" font-size="14.00" fill="#000000">parse_metadata</text>
</g>
<!-- gwas_workflow.cwl#parse_metadata&#45;&gt;gwas_workflow.cwl#run_gwas -->
<g id="edge1" class="edge">
<title>gwas_workflow.cwl#parse_metadata&#45;&gt;gwas_workflow.cwl#run_gwas</title>
<path fill="none" stroke="#000000" d="M85.1424,-143.8314C85.1424,-136.131 85.1424,-126.9743 85.1424,-118.4166"/>
<polygon fill="#000000" stroke="#000000" points="88.6425,-118.4132 85.1424,-108.4133 81.6425,-118.4133 88.6425,-118.4132"/>
</g>
</g>
</svg>
