<?xml version="1.0" encoding="UTF-8" standalone="no"?>
<!DOCTYPE svg PUBLIC "-//W3C//DTD SVG 1.1//EN"
 "http://www.w3.org/Graphics/SVG/1.1/DTD/svg11.dtd">
<!-- Generated by graphviz version 2.40.1 (20161225.0304)
 -->
<!-- Title: %3 Pages: 1 -->
<svg width="1032pt" height="692pt"
 viewBox="0.00 0.00 1032.27 692.00" xmlns="http://www.w3.org/2000/svg" xmlns:xlink="http://www.w3.org/1999/xlink">
<g id="graph0" class="graph" transform="scale(1 1) rotate(0) translate(4 688)">
<title>%3</title>
<polygon fill="#ffffff" stroke="transparent" points="-4,4 -4,-688 1028.2747,-688 1028.2747,4 -4,4"/>
<!-- RNA&#45;seq.cwl#fastx_trimmer_paired -->
<g id="node1" class="node">
<title>RNA&#45;seq.cwl#fastx_trimmer_paired</title>
<ellipse fill="none" stroke="#000000" cx="895.8403" cy="-450" rx="111.5806" ry="18"/>
<text text-anchor="middle" x="895.8403" y="-446.3" font-family="Times,serif" font-size="14.00" fill="#000000">fastx_trimmer_paired</text>
</g>
<!-- RNA&#45;seq.cwl#check_for_fastx_and_produce_names -->
<g id="node12" class="node">
<title>RNA&#45;seq.cwl#check_for_fastx_and_produce_names</title>
<ellipse fill="none" stroke="#000000" cx="571.8403" cy="-378" rx="184.6673" ry="18"/>
<text text-anchor="middle" x="571.8403" y="-374.3" font-family="Times,serif" font-size="14.00" fill="#000000">check_for_fastx_and_produce_names</text>
</g>
<!-- RNA&#45;seq.cwl#fastx_trimmer_paired&#45;&gt;RNA&#45;seq.cwl#check_for_fastx_and_produce_names -->
<g id="edge2" class="edge">
<title>RNA&#45;seq.cwl#fastx_trimmer_paired&#45;&gt;RNA&#45;seq.cwl#check_for_fastx_and_produce_names</title>
<path fill="none" stroke="#000000" d="M829.8835,-435.3429C779.7186,-424.1952 710.3236,-408.7741 656.1316,-396.7314"/>
<polygon fill="#000000" stroke="#000000" points="656.719,-393.2766 646.1978,-394.5239 655.2004,-400.1099 656.719,-393.2766"/>
</g>
<!-- RNA&#45;seq.cwl#featureCounts -->
<g id="node2" class="node">
<title>RNA&#45;seq.cwl#featureCounts</title>
<ellipse fill="none" stroke="#000000" cx="463.8403" cy="-18" rx="77.1866" ry="18"/>
<text text-anchor="middle" x="463.8403" y="-14.3" font-family="Times,serif" font-size="14.00" fill="#000000">featureCounts</text>
</g>
<!-- RNA&#45;seq.cwl#get_raw_files -->
<g id="node3" class="node">
<title>RNA&#45;seq.cwl#get_raw_files</title>
<ellipse fill="none" stroke="#000000" cx="553.8403" cy="-666" rx="72.5877" ry="18"/>
<text text-anchor="middle" x="553.8403" y="-662.3" font-family="Times,serif" font-size="14.00" fill="#000000">get_raw_files</text>
</g>
<!-- RNA&#45;seq.cwl#fastqc_raw -->
<g id="node4" class="node">
<title>RNA&#45;seq.cwl#fastqc_raw</title>
<ellipse fill="none" stroke="#000000" cx="745.8403" cy="-594" rx="61.99" ry="18"/>
<text text-anchor="middle" x="745.8403" y="-590.3" font-family="Times,serif" font-size="14.00" fill="#000000">fastqc_raw</text>
</g>
<!-- RNA&#45;seq.cwl#get_raw_files&#45;&gt;RNA&#45;seq.cwl#fastqc_raw -->
<g id="edge4" class="edge">
<title>RNA&#45;seq.cwl#get_raw_files&#45;&gt;RNA&#45;seq.cwl#fastqc_raw</title>
<path fill="none" stroke="#000000" d="M594.0897,-650.9064C624.4839,-639.5086 666.288,-623.8321 698.3243,-611.8185"/>
<polygon fill="#000000" stroke="#000000" points="699.7953,-615.0049 707.9296,-608.2165 697.3374,-608.4506 699.7953,-615.0049"/>
</g>
<!-- RNA&#45;seq.cwl#split_single_paired -->
<g id="node14" class="node">
<title>RNA&#45;seq.cwl#split_single_paired</title>
<ellipse fill="none" stroke="#000000" cx="553.8403" cy="-594" rx="98.5829" ry="18"/>
<text text-anchor="middle" x="553.8403" y="-590.3" font-family="Times,serif" font-size="14.00" fill="#000000">split_single_paired</text>
</g>
<!-- RNA&#45;seq.cwl#get_raw_files&#45;&gt;RNA&#45;seq.cwl#split_single_paired -->
<g id="edge27" class="edge">
<title>RNA&#45;seq.cwl#get_raw_files&#45;&gt;RNA&#45;seq.cwl#split_single_paired</title>
<path fill="none" stroke="#000000" d="M553.8403,-647.8314C553.8403,-640.131 553.8403,-630.9743 553.8403,-622.4166"/>
<polygon fill="#000000" stroke="#000000" points="557.3404,-622.4132 553.8403,-612.4133 550.3404,-622.4133 557.3404,-622.4132"/>
</g>
<!-- RNA&#45;seq.cwl#hisat2_for_single_reads -->
<g id="node5" class="node">
<title>RNA&#45;seq.cwl#hisat2_for_single_reads</title>
<ellipse fill="none" stroke="#000000" cx="440.8403" cy="-306" rx="120.7786" ry="18"/>
<text text-anchor="middle" x="440.8403" y="-302.3" font-family="Times,serif" font-size="14.00" fill="#000000">hisat2_for_single_reads</text>
</g>
<!-- RNA&#45;seq.cwl#merge_hisat2_sam_files -->
<g id="node18" class="node">
<title>RNA&#45;seq.cwl#merge_hisat2_sam_files</title>
<ellipse fill="none" stroke="#000000" cx="571.8403" cy="-234" rx="122.3786" ry="18"/>
<text text-anchor="middle" x="571.8403" y="-230.3" font-family="Times,serif" font-size="14.00" fill="#000000">merge_hisat2_sam_files</text>
</g>
<!-- RNA&#45;seq.cwl#hisat2_for_single_reads&#45;&gt;RNA&#45;seq.cwl#merge_hisat2_sam_files -->
<g id="edge26" class="edge">
<title>RNA&#45;seq.cwl#hisat2_for_single_reads&#45;&gt;RNA&#45;seq.cwl#merge_hisat2_sam_files</title>
<path fill="none" stroke="#000000" d="M472.5517,-288.5708C490.1216,-278.914 512.1583,-266.8023 531.0047,-256.4439"/>
<polygon fill="#000000" stroke="#000000" points="532.889,-259.4022 539.9668,-251.5182 529.5174,-253.2677 532.889,-259.4022"/>
</g>
<!-- RNA&#45;seq.cwl#create_qualityTrimmed_dir -->
<g id="node6" class="node">
<title>RNA&#45;seq.cwl#create_qualityTrimmed_dir</title>
<ellipse fill="none" stroke="#000000" cx="553.8403" cy="-522" rx="137.5759" ry="18"/>
<text text-anchor="middle" x="553.8403" y="-518.3" font-family="Times,serif" font-size="14.00" fill="#000000">create_qualityTrimmed_dir</text>
</g>
<!-- RNA&#45;seq.cwl#fastqc_single_trimmed -->
<g id="node9" class="node">
<title>RNA&#45;seq.cwl#fastqc_single_trimmed</title>
<ellipse fill="none" stroke="#000000" cx="392.8403" cy="-450" rx="116.9792" ry="18"/>
<text text-anchor="middle" x="392.8403" y="-446.3" font-family="Times,serif" font-size="14.00" fill="#000000">fastqc_single_trimmed</text>
</g>
<!-- RNA&#45;seq.cwl#create_qualityTrimmed_dir&#45;&gt;RNA&#45;seq.cwl#fastqc_single_trimmed -->
<g id="edge18" class="edge">
<title>RNA&#45;seq.cwl#create_qualityTrimmed_dir&#45;&gt;RNA&#45;seq.cwl#fastqc_single_trimmed</title>
<path fill="none" stroke="#000000" d="M514.8666,-504.5708C492.4377,-494.5405 464.0861,-481.8615 440.3573,-471.2499"/>
<polygon fill="#000000" stroke="#000000" points="441.7345,-468.0317 431.1769,-467.1443 438.8767,-474.4219 441.7345,-468.0317"/>
</g>
<!-- RNA&#45;seq.cwl#fastqc_paired_trimmed -->
<g id="node16" class="node">
<title>RNA&#45;seq.cwl#fastqc_paired_trimmed</title>
<ellipse fill="none" stroke="#000000" cx="646.8403" cy="-450" rx="118.8789" ry="18"/>
<text text-anchor="middle" x="646.8403" y="-446.3" font-family="Times,serif" font-size="14.00" fill="#000000">fastqc_paired_trimmed</text>
</g>
<!-- RNA&#45;seq.cwl#create_qualityTrimmed_dir&#45;&gt;RNA&#45;seq.cwl#fastqc_paired_trimmed -->
<g id="edge10" class="edge">
<title>RNA&#45;seq.cwl#create_qualityTrimmed_dir&#45;&gt;RNA&#45;seq.cwl#fastqc_paired_trimmed</title>
<path fill="none" stroke="#000000" d="M576.829,-504.2022C588.5659,-495.1156 603.0148,-483.9294 615.7323,-474.0836"/>
<polygon fill="#000000" stroke="#000000" points="618.029,-476.7319 623.7936,-467.8425 613.7438,-471.1968 618.029,-476.7319"/>
</g>
<!-- RNA&#45;seq.cwl#samtools_view -->
<g id="node7" class="node">
<title>RNA&#45;seq.cwl#samtools_view</title>
<ellipse fill="none" stroke="#000000" cx="464.8403" cy="-162" rx="78.7863" ry="18"/>
<text text-anchor="middle" x="464.8403" y="-158.3" font-family="Times,serif" font-size="14.00" fill="#000000">samtools_view</text>
</g>
<!-- RNA&#45;seq.cwl#samtools_sort -->
<g id="node15" class="node">
<title>RNA&#45;seq.cwl#samtools_sort</title>
<ellipse fill="none" stroke="#000000" cx="485.8403" cy="-90" rx="75.2868" ry="18"/>
<text text-anchor="middle" x="485.8403" y="-86.3" font-family="Times,serif" font-size="14.00" fill="#000000">samtools_sort</text>
</g>
<!-- RNA&#45;seq.cwl#samtools_view&#45;&gt;RNA&#45;seq.cwl#samtools_sort -->
<g id="edge25" class="edge">
<title>RNA&#45;seq.cwl#samtools_view&#45;&gt;RNA&#45;seq.cwl#samtools_sort</title>
<path fill="none" stroke="#000000" d="M470.1394,-143.8314C472.4101,-136.0463 475.1148,-126.7729 477.6343,-118.1347"/>
<polygon fill="#000000" stroke="#000000" points="481.0296,-118.9933 480.4697,-108.4133 474.3096,-117.0332 481.0296,-118.9933"/>
</g>
<!-- RNA&#45;seq.cwl#create_qualityRaw_dir -->
<g id="node8" class="node">
<title>RNA&#45;seq.cwl#create_qualityRaw_dir</title>
<ellipse fill="none" stroke="#000000" cx="759.8403" cy="-666" rx="115.8798" ry="18"/>
<text text-anchor="middle" x="759.8403" y="-662.3" font-family="Times,serif" font-size="14.00" fill="#000000">create_qualityRaw_dir</text>
</g>
<!-- RNA&#45;seq.cwl#create_qualityRaw_dir&#45;&gt;RNA&#45;seq.cwl#fastqc_raw -->
<g id="edge20" class="edge">
<title>RNA&#45;seq.cwl#create_qualityRaw_dir&#45;&gt;RNA&#45;seq.cwl#fastqc_raw</title>
<path fill="none" stroke="#000000" d="M756.3075,-647.8314C754.8102,-640.131 753.0297,-630.9743 751.3657,-622.4166"/>
<polygon fill="#000000" stroke="#000000" points="754.765,-621.5614 749.4206,-612.4133 747.8937,-622.8975 754.765,-621.5614"/>
</g>
<!-- RNA&#45;seq.cwl#stringtie -->
<g id="node10" class="node">
<title>RNA&#45;seq.cwl#stringtie</title>
<ellipse fill="none" stroke="#000000" cx="609.8403" cy="-18" rx="50.8918" ry="18"/>
<text text-anchor="middle" x="609.8403" y="-14.3" font-family="Times,serif" font-size="14.00" fill="#000000">stringtie</text>
</g>
<!-- RNA&#45;seq.cwl#trim_galore_paired_step -->
<g id="node11" class="node">
<title>RNA&#45;seq.cwl#trim_galore_paired_step</title>
<ellipse fill="none" stroke="#000000" cx="883.8403" cy="-522" rx="124.2781" ry="18"/>
<text text-anchor="middle" x="883.8403" y="-518.3" font-family="Times,serif" font-size="14.00" fill="#000000">trim_galore_paired_step</text>
</g>
<!-- RNA&#45;seq.cwl#trim_galore_paired_step&#45;&gt;RNA&#45;seq.cwl#fastx_trimmer_paired -->
<g id="edge6" class="edge">
<title>RNA&#45;seq.cwl#trim_galore_paired_step&#45;&gt;RNA&#45;seq.cwl#fastx_trimmer_paired</title>
<path fill="none" stroke="#000000" d="M886.8684,-503.8314C888.1518,-496.131 889.6779,-486.9743 891.1041,-478.4166"/>
<polygon fill="#000000" stroke="#000000" points="894.5797,-478.8526 892.7714,-468.4133 887.6749,-477.7018 894.5797,-478.8526"/>
</g>
<!-- RNA&#45;seq.cwl#trim_galore_paired_step&#45;&gt;RNA&#45;seq.cwl#check_for_fastx_and_produce_names -->
<g id="edge8" class="edge">
<title>RNA&#45;seq.cwl#trim_galore_paired_step&#45;&gt;RNA&#45;seq.cwl#check_for_fastx_and_produce_names</title>
<path fill="none" stroke="#000000" d="M960.496,-507.8398C982.3503,-499.8742 1003.7574,-487.4319 1016.8403,-468 1025.776,-454.7278 1027.4507,-443.9758 1016.8403,-432 998.2231,-410.9871 859.2159,-396.5062 741.4491,-387.8696"/>
<polygon fill="#000000" stroke="#000000" points="741.4359,-384.3596 731.2096,-387.1293 740.9311,-391.3413 741.4359,-384.3596"/>
</g>
<!-- RNA&#45;seq.cwl#trim_galore_paired_step&#45;&gt;RNA&#45;seq.cwl#fastqc_paired_trimmed -->
<g id="edge16" class="edge">
<title>RNA&#45;seq.cwl#trim_galore_paired_step&#45;&gt;RNA&#45;seq.cwl#fastqc_paired_trimmed</title>
<path fill="none" stroke="#000000" d="M830.3573,-505.752C794.6396,-494.9011 747.5077,-480.5825 709.9523,-469.1733"/>
<polygon fill="#000000" stroke="#000000" points="710.7142,-465.7469 700.1286,-466.1889 708.6794,-472.4446 710.7142,-465.7469"/>
</g>
<!-- RNA&#45;seq.cwl#check_for_fastx_and_produce_names&#45;&gt;RNA&#45;seq.cwl#hisat2_for_single_reads -->
<g id="edge12" class="edge">
<title>RNA&#45;seq.cwl#check_for_fastx_and_produce_names&#45;&gt;RNA&#45;seq.cwl#hisat2_for_single_reads</title>
<path fill="none" stroke="#000000" d="M539.4582,-360.2022C522.0081,-350.6113 500.3021,-338.6813 481.7001,-328.4573"/>
<polygon fill="#000000" stroke="#000000" points="483.2992,-325.3424 472.8498,-323.593 479.9275,-331.477 483.2992,-325.3424"/>
</g>
<!-- RNA&#45;seq.cwl#hisat2_for_paired_reads -->
<g id="node13" class="node">
<title>RNA&#45;seq.cwl#hisat2_for_paired_reads</title>
<ellipse fill="none" stroke="#000000" cx="702.8403" cy="-306" rx="122.6784" ry="18"/>
<text text-anchor="middle" x="702.8403" y="-302.3" font-family="Times,serif" font-size="14.00" fill="#000000">hisat2_for_paired_reads</text>
</g>
<!-- RNA&#45;seq.cwl#check_for_fastx_and_produce_names&#45;&gt;RNA&#45;seq.cwl#hisat2_for_paired_reads -->
<g id="edge1" class="edge">
<title>RNA&#45;seq.cwl#check_for_fastx_and_produce_names&#45;&gt;RNA&#45;seq.cwl#hisat2_for_paired_reads</title>
<path fill="none" stroke="#000000" d="M604.2223,-360.2022C621.6724,-350.6113 643.3784,-338.6813 661.9804,-328.4573"/>
<polygon fill="#000000" stroke="#000000" points="663.753,-331.477 670.8307,-323.593 660.3813,-325.3424 663.753,-331.477"/>
</g>
<!-- RNA&#45;seq.cwl#hisat2_for_paired_reads&#45;&gt;RNA&#45;seq.cwl#merge_hisat2_sam_files -->
<g id="edge9" class="edge">
<title>RNA&#45;seq.cwl#hisat2_for_paired_reads&#45;&gt;RNA&#45;seq.cwl#merge_hisat2_sam_files</title>
<path fill="none" stroke="#000000" d="M671.1288,-288.5708C653.5589,-278.914 631.5222,-266.8023 612.6758,-256.4439"/>
<polygon fill="#000000" stroke="#000000" points="614.1631,-253.2677 603.7137,-251.5182 610.7915,-259.4022 614.1631,-253.2677"/>
</g>
<!-- RNA&#45;seq.cwl#split_single_paired&#45;&gt;RNA&#45;seq.cwl#fastqc_single_trimmed -->
<g id="edge5" class="edge">
<title>RNA&#45;seq.cwl#split_single_paired&#45;&gt;RNA&#45;seq.cwl#fastqc_single_trimmed</title>
<path fill="none" stroke="#000000" d="M478.102,-582.4004C451.8542,-574.6315 424.5909,-561.6596 406.8403,-540 392.8015,-522.8697 389.9338,-497.5435 390.2156,-478.1174"/>
<polygon fill="#000000" stroke="#000000" points="393.7168,-478.1615 390.6453,-468.0217 386.7231,-477.8638 393.7168,-478.1615"/>
</g>
<!-- RNA&#45;seq.cwl#split_single_paired&#45;&gt;RNA&#45;seq.cwl#trim_galore_paired_step -->
<g id="edge23" class="edge">
<title>RNA&#45;seq.cwl#split_single_paired&#45;&gt;RNA&#45;seq.cwl#trim_galore_paired_step</title>
<path fill="none" stroke="#000000" d="M617.4676,-580.1177C670.9147,-568.4565 747.5312,-551.7402 804.8868,-539.2262"/>
<polygon fill="#000000" stroke="#000000" points="805.9764,-542.5709 815.0004,-537.0196 804.4841,-535.7318 805.9764,-542.5709"/>
</g>
<!-- RNA&#45;seq.cwl#split_single_paired&#45;&gt;RNA&#45;seq.cwl#fastqc_paired_trimmed -->
<g id="edge3" class="edge">
<title>RNA&#45;seq.cwl#split_single_paired&#45;&gt;RNA&#45;seq.cwl#fastqc_paired_trimmed</title>
<path fill="none" stroke="#000000" d="M613.4833,-579.5213C649.4326,-569.453 690.2585,-555.1603 700.8403,-540 715.7558,-518.6307 697.1529,-493.049 677.827,-474.6307"/>
<polygon fill="#000000" stroke="#000000" points="679.9326,-471.8157 670.1693,-467.7012 675.2358,-477.0061 679.9326,-471.8157"/>
</g>
<!-- RNA&#45;seq.cwl#trim_galore_single -->
<g id="node19" class="node">
<title>RNA&#45;seq.cwl#trim_galore_single</title>
<ellipse fill="none" stroke="#000000" cx="257.8403" cy="-522" rx="97.4827" ry="18"/>
<text text-anchor="middle" x="257.8403" y="-518.3" font-family="Times,serif" font-size="14.00" fill="#000000">trim_galore_single</text>
</g>
<!-- RNA&#45;seq.cwl#split_single_paired&#45;&gt;RNA&#45;seq.cwl#trim_galore_single -->
<g id="edge22" class="edge">
<title>RNA&#45;seq.cwl#split_single_paired&#45;&gt;RNA&#45;seq.cwl#trim_galore_single</title>
<path fill="none" stroke="#000000" d="M494.2963,-579.5163C445.8655,-567.7359 377.4737,-551.1 326.6936,-538.7481"/>
<polygon fill="#000000" stroke="#000000" points="327.3275,-535.3003 316.7836,-536.3376 325.673,-542.102 327.3275,-535.3003"/>
</g>
<!-- RNA&#45;seq.cwl#samtools_sort&#45;&gt;RNA&#45;seq.cwl#featureCounts -->
<g id="edge24" class="edge">
<title>RNA&#45;seq.cwl#samtools_sort&#45;&gt;RNA&#45;seq.cwl#featureCounts</title>
<path fill="none" stroke="#000000" d="M480.2887,-71.8314C477.91,-64.0463 475.0764,-54.7729 472.437,-46.1347"/>
<polygon fill="#000000" stroke="#000000" points="475.736,-44.954 469.4665,-36.4133 469.0416,-46.9996 475.736,-44.954"/>
</g>
<!-- RNA&#45;seq.cwl#samtools_sort&#45;&gt;RNA&#45;seq.cwl#stringtie -->
<g id="edge21" class="edge">
<title>RNA&#45;seq.cwl#samtools_sort&#45;&gt;RNA&#45;seq.cwl#stringtie</title>
<path fill="none" stroke="#000000" d="M514.6,-73.3008C532.5113,-62.9007 555.6775,-49.4494 574.6772,-38.4173"/>
<polygon fill="#000000" stroke="#000000" points="576.4628,-41.4277 583.3532,-33.3796 572.9478,-35.3742 576.4628,-41.4277"/>
</g>
<!-- RNA&#45;seq.cwl#fastx_trimmer_single -->
<g id="node17" class="node">
<title>RNA&#45;seq.cwl#fastx_trimmer_single</title>
<ellipse fill="none" stroke="#000000" cx="109.8403" cy="-450" rx="109.6807" ry="18"/>
<text text-anchor="middle" x="109.8403" y="-446.3" font-family="Times,serif" font-size="14.00" fill="#000000">fastx_trimmer_single</text>
</g>
<!-- RNA&#45;seq.cwl#fastx_trimmer_single&#45;&gt;RNA&#45;seq.cwl#check_for_fastx_and_produce_names -->
<g id="edge13" class="edge">
<title>RNA&#45;seq.cwl#fastx_trimmer_single&#45;&gt;RNA&#45;seq.cwl#check_for_fastx_and_produce_names</title>
<path fill="none" stroke="#000000" d="M189.5238,-437.5818C265.3017,-425.7722 379.8703,-407.9174 463.8343,-394.8321"/>
<polygon fill="#000000" stroke="#000000" points="464.5756,-398.2589 473.9174,-393.2607 463.4977,-391.3424 464.5756,-398.2589"/>
</g>
<!-- RNA&#45;seq.cwl#merge_hisat2_sam_files&#45;&gt;RNA&#45;seq.cwl#samtools_view -->
<g id="edge17" class="edge">
<title>RNA&#45;seq.cwl#merge_hisat2_sam_files&#45;&gt;RNA&#45;seq.cwl#samtools_view</title>
<path fill="none" stroke="#000000" d="M545.6651,-216.3868C531.5975,-206.9208 514.0845,-195.1363 498.9605,-184.9594"/>
<polygon fill="#000000" stroke="#000000" points="500.6265,-181.8619 490.3759,-179.1829 496.7185,-187.6695 500.6265,-181.8619"/>
</g>
<!-- RNA&#45;seq.cwl#merge_hisat2_sam_files&#45;&gt;RNA&#45;seq.cwl#stringtie -->
<g id="edge19" class="edge">
<title>RNA&#45;seq.cwl#merge_hisat2_sam_files&#45;&gt;RNA&#45;seq.cwl#stringtie</title>
<path fill="none" stroke="#000000" d="M575.0148,-215.9555C581.6368,-178.3144 596.9648,-91.1867 604.8924,-46.1246"/>
<polygon fill="#000000" stroke="#000000" points="608.3624,-46.6003 606.6481,-36.1451 601.4683,-45.3874 608.3624,-46.6003"/>
</g>
<!-- RNA&#45;seq.cwl#merge_hisat2_sam_files&#45;&gt;RNA&#45;seq.cwl#samtools_sort -->
<g id="edge7" class="edge">
<title>RNA&#45;seq.cwl#merge_hisat2_sam_files&#45;&gt;RNA&#45;seq.cwl#samtools_sort</title>
<path fill="none" stroke="#000000" d="M571.5285,-215.7817C570.4323,-196.608 566.4512,-166.188 552.8403,-144 545.4324,-131.9241 534.3194,-121.3851 523.2626,-112.9013"/>
<polygon fill="#000000" stroke="#000000" points="525.0308,-109.8602 514.8807,-106.8229 520.9214,-115.527 525.0308,-109.8602"/>
</g>
<!-- RNA&#45;seq.cwl#trim_galore_single&#45;&gt;RNA&#45;seq.cwl#fastqc_single_trimmed -->
<g id="edge14" class="edge">
<title>RNA&#45;seq.cwl#trim_galore_single&#45;&gt;RNA&#45;seq.cwl#fastqc_single_trimmed</title>
<path fill="none" stroke="#000000" d="M289.8334,-504.937C308.142,-495.1724 331.3228,-482.8093 351.056,-472.285"/>
<polygon fill="#000000" stroke="#000000" points="352.9625,-475.2348 360.139,-467.4407 349.6684,-469.0584 352.9625,-475.2348"/>
</g>
<!-- RNA&#45;seq.cwl#trim_galore_single&#45;&gt;RNA&#45;seq.cwl#check_for_fastx_and_produce_names -->
<g id="edge11" class="edge">
<title>RNA&#45;seq.cwl#trim_galore_single&#45;&gt;RNA&#45;seq.cwl#check_for_fastx_and_produce_names</title>
<path fill="none" stroke="#000000" d="M253.8824,-503.9028C250.6133,-483.6708 249.0108,-451.2303 266.8403,-432 287.1006,-410.1478 346.984,-397.0954 408.3851,-389.3191"/>
<polygon fill="#000000" stroke="#000000" points="409.1439,-392.7526 418.6472,-388.0688 408.2973,-385.804 409.1439,-392.7526"/>
</g>
<!-- RNA&#45;seq.cwl#trim_galore_single&#45;&gt;RNA&#45;seq.cwl#fastx_trimmer_single -->
<g id="edge15" class="edge">
<title>RNA&#45;seq.cwl#trim_galore_single&#45;&gt;RNA&#45;seq.cwl#fastx_trimmer_single</title>
<path fill="none" stroke="#000000" d="M223.1408,-505.1192C202.5823,-495.1177 176.3226,-482.3427 154.2613,-471.6102"/>
<polygon fill="#000000" stroke="#000000" points="155.6159,-468.3771 145.0924,-467.1497 152.5536,-474.6717 155.6159,-468.3771"/>
</g>
</g>
</svg>
